# xmcd
# 
# Track frame offsets:
#     150
#     13068
#     24669
#     36002
#     49121
#     60784
#     72002
#     85562
#     99111
#     110788
#     120918
#     129696
#     142585
#     155059
#     164304
#     176805
#     188634
#     199904
#     212489
#     224356
#     238661
#     248875
#     259929
#     271180
#     282201
# 
# Disc length: 3899
# 
# Revision: 0
# Processed by: cddbd v1.5.2PL0 Copyright (c) Steve Scherf et al.
# Submitted via: fre:ac v1.0.17
# 
DISCID=580f3919
DTITLE=Various Artist - 101 - Country Number Ones [CD3]
DYEAR=2016
DGENRE=Country
TTITLE0=Webb Pierce - Love, Love, Love
TTITLE1=Hank Williams - Kaw-Liga
TTITLE2=Mitchell Torok - Caribbean
TTITLE3=Webb Pierce - That Heart Belongs To Me
TTITLE4=Eddy Arnold - I Really Don't Want To Know
TTITLE5=Hank Snow - Let Me Go Lover
TTITLE6=Webb Pierce - Wondering
TTITLE7=The Davis Sisters with Skeeter Davis - I Forgot More Than You'll Ever Know
TTITLE8=Goldie Hill - I Let The Stars Get In My Eyes
TTITLE9=Hank Thompson - Rub-A-Dub-Dub
TTITLE10=Johnnie and Jack - (Oh Baby Mine) I Get So Lonely
TTITLE11=Jim Reeves - Bimbo
TTITLE12=Bobby Helms - Fraulein
TTITLE13=Elvis Presley - Don't Be Cruel
TTITLE14=Webb Pierce - Even Tho'
TTITLE15=Carl Smith - Loose Talk
TTITLE16=Eddy Arnold - That Do Make It Nice
TTITLE17=Porter Wagoner - A Satisfied Mind
TTITLE18=Elvis Presley -  I Want You, I Need You, I Love You
TTITLE19=Ernest Tubb - Soldier's Last Letter
TTITLE20=Johnny Cash - There You Go
TTITLE21=Marty Robbins - Singing The Blues
TTITLE22=Sonny James - Young Love
TTITLE23=Elvis Presley - Jailhouse Rock
TTITLE24=The Everly Brothers - Bye Bye Love
EXTD=
EXTT0=
EXTT1=
EXTT2=
EXTT3=
EXTT4=
EXTT5=
EXTT6=
EXTT7=
EXTT8=
EXTT9=
EXTT10=
EXTT11=
EXTT12=
EXTT13=
EXTT14=
EXTT15=
EXTT16=
EXTT17=
EXTT18=
EXTT19=
EXTT20=
EXTT21=
EXTT22=
EXTT23=
EXTT24=
PLAYORDER=
